<?xml version="1.0" encoding="UTF-8"?>
<svg width="752pt" height="752pt" version="1.1" viewBox="0 0 752 752" xmlns="http://www.w3.org/2000/svg">
 <g>
  <path d="m328.74 502.68c16.195 0 29.316-13.164 29.316-29.316l-0.003907-194.73c0-16.195-13.164-29.316-29.316-29.316h-16.008c-16.195 0-29.316 13.164-29.316 29.316v194.69c0 16.195 13.164 29.316 29.316 29.316h16.012zm-28.793-29.312v-194.74c0-7.0547 5.7305-12.738 12.738-12.738h16.008c7.0547 0 12.738 5.7305 12.738 12.738v194.69c0 7.0547-5.7305 12.738-12.738 12.738h-16.008c-7.0078 0.050781-12.738-5.6797-12.738-12.688z"/>
  <path d="m423.27 502.68h16.008c16.195 0 29.316-13.164 29.316-29.316l-0.003906-194.73c0-16.195-13.164-29.316-29.316-29.316h-16.008c-16.195 0-29.316 13.164-29.316 29.316v194.69c0.003907 16.199 13.172 29.363 29.32 29.363zm-12.738-224.05c0-7.0547 5.7305-12.738 12.738-12.738h16.008c7.0547 0 12.738 5.7305 12.738 12.738v194.69c0 7.0547-5.7305 12.738-12.738 12.738h-16.008c-7.0547 0-12.738-5.7305-12.738-12.738z"/>
 </g>
</svg>
