<?xml version="1.0" encoding="UTF-8"?>
<svg width="752pt" height="752pt" version="1.1" viewBox="0 0 752 752" xmlns="http://www.w3.org/2000/svg">
 <path d="m284.54 533.47c-13.727-0.039062-26.879-5.5117-36.586-15.215-9.7031-9.707-15.176-22.859-15.215-36.586v-211.19c0.16406-18.422 10.102-35.371 26.098-44.512s35.645-9.0977 51.602 0.11328l182.92 105.52c16.012 9.2578 25.871 26.352 25.871 44.844 0 18.496-9.8594 35.586-25.871 44.844l-182.92 105.07c-7.8555 4.6094-16.793 7.0625-25.898 7.1055zm0-299.98c-9.8008 0.039063-19.191 3.9492-26.121 10.879-6.9297 6.9297-10.84 16.316-10.879 26.117v211.04c-0.019531 8.707 3.0352 17.141 8.625 23.82 5.5859 6.6758 13.352 11.168 21.926 12.688 8.5703 1.5156 17.406-0.039063 24.945-4.3906l182.77-105.52c11.445-6.6094 18.5-18.824 18.5-32.043 0-13.215-7.0547-25.43-18.5-32.039l-182.77-105.67c-5.6133-3.2812-11.996-5.0156-18.496-5.0312z"/>
</svg>
